<svg xmlns="http://www.w3.org/2000/svg" viewBox="0 0 260.82 46.95"><defs><style>.cls-1{fill:#292526;}.cls-2{fill:#df0522;}</style></defs><g id="レイヤー_2" data-name="レイヤー 2"><g id="レイヤー_1-2" data-name="レイヤー 1"><polygon class="cls-1" points="75.14 14.31 67.61 26.36 60.09 14.31 58.42 14.31 58.42 32.35 61.92 32.35 61.92 23.48 67.6 32.35 73.28 23.48 73.28 32.35 76.77 32.35 76.77 14.31 75.14 14.31"/><path class="cls-1" d="M97,17a10.09,10.09,0,0,0-13.61,0,8.67,8.67,0,0,0-2.8,6.52A8.64,8.64,0,0,0,83.39,30,10.09,10.09,0,0,0,97,30a8.62,8.62,0,0,0,2.82-6.52A8.64,8.64,0,0,0,97,17ZM90.22,29.37a6,6,0,0,1-4.38-1.68,5.67,5.67,0,0,1-1.73-4.24,5.62,5.62,0,0,1,1.73-4.21,6.54,6.54,0,0,1,8.74,0,5.62,5.62,0,0,1,1.75,4.2,5.64,5.64,0,0,1-1.74,4.24A6,6,0,0,1,90.22,29.37Z"/><polygon class="cls-1" points="116.06 14.6 116.06 25.9 105.05 14.38 104.97 14.31 103.58 14.31 103.58 32.35 107.08 32.35 107.08 21.02 118.12 32.56 118.19 32.63 119.56 32.63 119.56 14.6 116.06 14.6"/><path class="cls-1" d="M135.93,24.41a10.8,10.8,0,0,0-3.47-2.14l-2.11-.89a10.11,10.11,0,0,1-2-1.07,1.42,1.42,0,0,1-.51-1.19,1.51,1.51,0,0,1,.72-1.36,3.43,3.43,0,0,1,1.89-.5,4.39,4.39,0,0,1,3.77,2l.14.19,2.48-1.76-.11-.18a6.74,6.74,0,0,0-2.57-2.32,7.85,7.85,0,0,0-3.71-.88,7,7,0,0,0-4.36,1.35,4.27,4.27,0,0,0-1.8,3.57,4,4,0,0,0,1.22,3,10.54,10.54,0,0,0,3.31,2l2.08.89A9.07,9.07,0,0,1,133,26.24a1.53,1.53,0,0,1,.56,1.27,1.84,1.84,0,0,1-.8,1.57,3.73,3.73,0,0,1-2.21.61A5.88,5.88,0,0,1,125.8,27l-.14-.18-2.51,1.75.12.18a7.84,7.84,0,0,0,3,2.83,8.9,8.9,0,0,0,4.28,1,7.39,7.39,0,0,0,4.66-1.42,4.59,4.59,0,0,0,1.88-3.81A4.13,4.13,0,0,0,135.93,24.41Z"/><polygon class="cls-1" points="140.02 14.6 140.02 17.55 146.35 17.55 146.35 32.35 149.84 32.35 149.84 17.55 156.2 17.55 156.2 14.6 140.02 14.6"/><polygon class="cls-1" points="163.47 29.4 163.47 24.39 170.51 24.39 170.51 21.51 163.47 21.51 163.47 17.55 172.81 17.55 172.81 14.6 159.97 14.6 159.97 32.35 173.16 32.35 173.16 29.4 163.47 29.4"/><path class="cls-1" d="M187.86,25.1a5.72,5.72,0,0,0,2.48-1.86,5.12,5.12,0,0,0,1-3.12,5,5,0,0,0-1.85-4,7.26,7.26,0,0,0-4.77-1.52h-7.11V32.35h3.5V25.67h3.09l5.36,6.68h4.05Zm-6.75-7.58h3.55a3.3,3.3,0,0,1,2.29.73,2.4,2.4,0,0,1,.81,1.9A2.37,2.37,0,0,1,187,22a3.35,3.35,0,0,1-2.29.73h-3.55Z"/><path class="cls-1" d="M210.75,17a11.34,11.34,0,0,0-7.59-2.44H197V32.35h6.14a11.28,11.28,0,0,0,7.58-2.48,8.16,8.16,0,0,0,2.89-6.42A8.05,8.05,0,0,0,210.75,17Zm-10.23.53h2.61a7.5,7.5,0,0,1,5.07,1.61A5.39,5.39,0,0,1,210,23.45a5.47,5.47,0,0,1-1.86,4.28,7.33,7.33,0,0,1-5.05,1.67h-2.61Z"/><rect class="cls-1" x="218.16" y="14.6" width="3.5" height="17.75"/><polygon class="cls-1" points="239.91 14.6 234.65 26.28 229.39 14.6 225.47 14.6 233.98 32.63 235.31 32.63 243.82 14.6 239.91 14.6"/><polygon class="cls-1" points="251.13 29.4 251.13 24.39 258.17 24.39 258.17 21.51 251.13 21.51 251.13 17.55 260.48 17.55 260.48 14.6 247.63 14.6 247.63 32.35 260.82 32.35 260.82 29.4 251.13 29.4"/><polygon class="cls-2" points="13.3 3.68 28.3 0 21.25 33.2 13.3 3.68"/><polygon class="cls-2" points="42.52 10.5 36.28 32.65 31 4.29 42.52 10.5"/><polygon class="cls-2" points="9.97 8.61 5.72 31.5 0 18.18 9.97 8.61"/><polygon class="cls-2" points="29.13 15.76 34.87 42.16 22.65 46.95 29.13 15.76"/><polygon class="cls-2" points="42.28 19.12 45.71 30.3 38.86 36.45 42.28 19.12"/><polygon class="cls-2" points="12.6 15.88 19.27 44.49 6.51 39.86 12.6 15.88"/></g></g></svg>